<svg xmlns="http://www.w3.org/2000/svg" width="256" height="256" viewBox="0 0 256 256">
  <g id="Ebene_2" data-name="Ebene 2">
    <g id="Areas">
      <g id="vAreaAnalysis_Icon256">
        <g>
          <path d="M157.17,146.94h-.38c-13.18,0-19.43-21.27-22.09-35a28.45,28.45,0,0,0-4.81,15.89c0,15.42,12.11,28,27,28s27-12.54,27-28a28.47,28.47,0,0,0-4.72-15.75C176.54,125.46,170.33,146.54,157.17,146.94Z" fill="#565c5e"/>
          <path d="M156.86,132.11c2.78-3.21,6.67-13.92,8.53-23.9l1.21-6.46a25.8,25.8,0,0,0-19.31,0l1.15,6.24C150.32,118.17,154.1,128.83,156.86,132.11Z" fill="#565c5e"/>
          <path d="M128,0A128,128,0,1,0,256,128,128,128,0,0,0,128,0Zm80.25,191.2-32.87-34a33.19,33.19,0,0,1-18.5,5.65c-18.81,0-34.11-15.74-34.11-35.08a35.31,35.31,0,0,1,15.32-29.24c-2.46-8-5.45-15.44-10.24-15.44-6.09,0-10.08,11.34-13.59,21.34-4.31,12.24-8.37,23.8-17.91,23.8-9.87,0-13.74-12.67-17.48-24.92-2.75-9-6.17-20.22-11-20.22-5.08,0-8.45,8.36-11.71,16.45-4,9.93-8.15,20.2-17.45,20.2h-.31c-15.43-.37-19-18.59-19.16-19.37l7-1.32c0,.14,2.69,13.34,12.34,13.57h.09c4.55,0,7.77-8,10.9-15.75C53.52,87.11,58,76,67.88,76c10.09,0,14,12.84,17.8,25.26,2.71,8.86,6.07,19.88,10.67,19.88s8.05-10.12,11.19-19c4.51-12.83,9.18-26.1,20.31-26.1,9.14,0,13.46,9.17,16.63,19.16a33,33,0,0,1,25.74.37c3.69-10.35,8.14-19.53,17-19.53,12.18,0,17.17,20.62,17.7,23l-7,1.56c-1.59-7-6.11-17.41-10.75-17.41s-7.88,7.81-10.74,16a35.64,35.64,0,0,1,8.86,47.91l33.13,34.24Z" fill="#565c5e"/>
        </g>
      </g>
    </g>
  </g>
</svg>
