<svg xmlns="http://www.w3.org/2000/svg" width="32" height="32" viewBox="0 0 32 32">
  <g id="Ebene_2" data-name="Ebene 2">
    <g id="Areas">
      <g id="vAreaStimulation_Icon32">
        <g>
          <path d="M22.06,23a1.78,1.78,0,0,1,1.33-1.43l.09-11.4H20.75V21.55A1.76,1.76,0,0,1,22.06,23Z" fill="#565c5e"/>
          <path d="M18.53,23.31v0Z" fill="#565c5e"/>
          <path d="M18.53,23.24a1.77,1.77,0,0,1,1.33-1.69V10.14H17.2V21.55A1.77,1.77,0,0,1,18.53,23.24Z" fill="#565c5e"/>
          <path d="M16,0A16,16,0,1,0,32,16,16,16,0,0,0,16,0Zm9.87,10.14h-1.5l-.09,11.41a1.77,1.77,0,0,1,1.32,1.72v.1a1.78,1.78,0,0,1-3.54.27,1.78,1.78,0,0,1-3.53-.27,1.78,1.78,0,0,1-3.56,0,.07.07,0,0,1,0-.05.11.11,0,0,1,0,0,1.76,1.76,0,0,1,1.34-1.71V10.14H13.42L7.62,20.21a1.77,1.77,0,0,1,.3,2.15l0,0,0,.05a1.78,1.78,0,1,1-3.08-1.78l0,0a.05.05,0,0,1,0,0,1.77,1.77,0,0,1,2-.82l5.55-9.63H11.08V8.36H25.87Z" fill="#565c5e"/>
        </g>
      </g>
    </g>
  </g>
</svg>
