<svg xmlns="http://www.w3.org/2000/svg" width="256" height="256" viewBox="0 0 256 256">
  <g id="Ebene_2" data-name="Ebene 2">
    <g id="Areas">
      <g id="vAreaStimulation_Icon256">
        <g>
          <path d="M176.52,183.79a14.14,14.14,0,0,1,10.58-11.44l.75-91.22H166v91.25A14.19,14.19,0,0,1,176.52,183.79Z" fill="#565c5e"/>
          <path d="M148.23,186.45a2.46,2.46,0,0,1,0,.28c0-.1,0-.19,0-.28s0-.19,0-.29A2.83,2.83,0,0,1,148.23,186.45Z" fill="#565c5e"/>
          <path d="M148.25,185.94a14.15,14.15,0,0,1,10.67-13.56V81.13H137.58v91.25A14.15,14.15,0,0,1,148.25,185.94Z" fill="#565c5e"/>
          <path d="M128,0A128,128,0,1,0,256,128,128,128,0,0,0,128,0Zm79,81.13H195l-.75,91.28a14.14,14.14,0,0,1,10.57,13.76c0,.13,0,.26,0,.39s0,.27,0,.4a14.23,14.23,0,0,1-28.27,2.19A14.22,14.22,0,0,1,148.25,187a14.24,14.24,0,0,1-28.47-.12c0-.13,0-.26,0-.39s0-.27,0-.4a14.15,14.15,0,0,1,10.68-13.67V81.13H107.38L61,161.72a14.15,14.15,0,0,1,2.42,17.18c-.06.11-.14.21-.21.33s-.11.23-.18.35a14.23,14.23,0,1,1-24.67-14.21c.06-.12.14-.22.21-.34a3.84,3.84,0,0,0,.18-.35,14.17,14.17,0,0,1,16.08-6.52l44.38-77H88.64V66.9H207Z" fill="#565c5e"/>
        </g>
      </g>
    </g>
  </g>
</svg>
