<svg xmlns="http://www.w3.org/2000/svg" width="256" height="256" viewBox="0 0 256 256">
  <g id="Ebene_2" data-name="Ebene 2">
    <g id="Areas">
      <g id="vAreaLogging_Icon256">
        <g>
          <path d="M184.37,80.56c-24.45,0-40.05,7.26-40.05,12.25s15.6,12.26,40.05,12.26,40.06-7.26,40.06-12.26S208.83,80.56,184.37,80.56Z" fill="#565c5e"/>
          <path d="M128,0A128,128,0,1,0,256,128,128,128,0,0,0,128,0Zm-3.6,156.33-4.19-26.86-7.29,33-7-.29-5.32-39.58L96,197.56l-7.11-.06-4-87.46-9.73,63.23L68,172.73V137.12l-4.33,19.43-7-.77v-4.06L52,161l-6.72-1.12-2.93-22.06-7.82,25L28.39,164l-12-14.76,5.51-4.49,7.85,9.63,10.65-34,6.93.59,3.52,26.48L57,135l4,.93L68.09,104l7,.77V126.2L83.2,73.71l7.07.38,2.65,57.3L95.73,86l7.08-.25,7.49,55.65,7-31.91,7,.22,5.92,38,20.18-23.2,5.45.09,15.6,19.19L166,148.24,153,132.34,130.6,158.11Zm60.11,29.25c-23.44,0-47.18-6.65-47.18-19.37h-.13V158h7.12v8.17h.13c0,5,15.61,12.25,40.06,12.25,16.51,0,40.06-7.92,40.06-12.25h-.14V103.54c-8.78,5.7-24.48,8.64-40.06,8.64s-31.27-2.94-40.05-8.64v10H137.2V92.81c0-12.71,23.73-19.37,47.17-19.37s47.18,6.66,47.18,19.37v73.4h.14C231.69,179.75,195.88,185.58,184.51,185.58Z" fill="#565c5e"/>
        </g>
      </g>
    </g>
  </g>
</svg>
