<svg xmlns="http://www.w3.org/2000/svg" width="32" height="32" viewBox="0 0 32 32">
  <g id="Ebene_2" data-name="Ebene 2">
    <g id="Areas">
      <g id="vAreaLogging_Icon32">
        <g>
          <path d="M23.05,10.07c-3.06,0-5,.91-5,1.53s1.95,1.53,5,1.53,5-.9,5-1.53S26.1,10.07,23.05,10.07Z" fill="#565c5e"/>
          <path d="M16,0A16,16,0,1,0,32,16,16,16,0,0,0,16,0Zm-.45,19.54L15,16.18l-.91,4.13-.88,0-.67-5L12,24.69h-.89L10.6,13.76l-1.22,7.9-.88-.07V17.14L8,19.57l-.88-.1V19L6.5,20.12,5.66,20,5.3,17.23l-1,3.12-.77.15-1.5-1.85.69-.56,1,1.21L5.05,15l.86.08.44,3.31.78-1.55.49.11.89-4,.88.1v2.68l1-6.57.88,0,.34,7.16L12,10.75l.88,0,.94,7,.88-4,.87,0,.74,4.75,2.52-2.9h.68l2,2.4-.7.56-1.61-2-2.8,3.22Zm7.51,3.66c-2.93,0-5.89-.83-5.89-2.42h0v-1H18v1h0c0,.62,2,1.53,5,1.53,2.07,0,5-1,5-1.53h0V12.94a10,10,0,0,1-5,1.08,10,10,0,0,1-5-1.08v1.25h-.89V11.6c0-1.59,3-2.42,5.9-2.42s5.89.83,5.89,2.42v9.18h0C29,22.47,24.49,23.2,23.06,23.2Z" fill="#565c5e"/>
        </g>
      </g>
    </g>
  </g>
</svg>
