<svg xmlns="http://www.w3.org/2000/svg" width="256" height="256" viewBox="0 0 256 256">
  <g id="Ebene_2" data-name="Ebene 2">
    <g id="Areas">
      <path id="vAreaTest_Icon256" d="M128,0A128,128,0,1,0,256,128,128,128,0,0,0,128,0ZM41.57,73H161.66V87.25H41.57Zm-.49,46.55H161.17v14.23H41.08Zm121.07,60.78H42.06V166.1H162.15Zm23.21-104,8.53,10.43L212,65.65l5.4,4.64L193.76,97.83l-13.91-17Zm26.3,61.44-5,5L197,133.16l-9.9,9.67-5-5.1,9.84-9.6-9.87-9.87,5-5,9.93,9.93,10.51-10.26,5,5.09-10.45,10.2Zm-17.08,53.16-13.91-17,5.51-4.51,8.53,10.43,18.12-21.09,5.4,4.63Z" fill="#565c5e"/>
    </g>
  </g>
</svg>
