<?xml version="1.0" encoding="utf-8"?>
<!-- Generator: Adobe Illustrator 23.0.3, SVG Export Plug-In . SVG Version: 6.00 Build 0)  -->
<svg version="1.1" id="WORT-_x2F_BILDMARKE_sRGB" xmlns="http://www.w3.org/2000/svg" xmlns:xlink="http://www.w3.org/1999/xlink"
	 x="0px" y="0px" width="178.39px" height="41.99px" viewBox="0 0 178.4 42" style="enable-background:new 0 0 178.4 42;" xml:space="preserve">
<style type="text/css">
	.st0{fill:#B70032;}
</style>
<polygon id="Bildmarke_183_x2F_0_x2F_50" class="st0" points="142.4,31.3 142.4,41.6 178.2,21 142.4,0.3 142.4,10.6 160.3,21 "/>
<polygon points="15.7,12 20.9,12 10.6,29.9 0.2,12 5.4,12 10.6,21 "/>
<path d="M95.6,11.6c-5.2,0-9.4,4.2-9.4,9.4c0,5.2,4.2,9.4,9.4,9.4s9.4-4.2,9.4-9.4C105,15.8,100.8,11.6,95.6,11.6z M95.6,25.9
	c-2.7,0-4.9-2.2-4.9-4.9s2.2-4.9,4.9-4.9c2.7,0,4.9,2.2,4.9,4.9S98.3,25.9,95.6,25.9z"/>
<path d="M56.3,25.9c-2.7,0-4.9-2.2-4.9-4.9s2.2-4.9,4.9-4.9c1.4,0,2.6,0.6,3.5,1.4l3.1-3.1c-1.7-1.7-4-2.8-6.6-2.8
	c-5.2,0-9.4,4.2-9.4,9.4c0,5.2,4.2,9.4,9.4,9.4c2.6,0,4.9-1.1,6.6-2.8l-3.1-3.1C58.9,25.3,57.6,25.9,56.3,25.9z"/>
<polygon points="66.5,16 72.5,16 72.5,29.9 77,29.9 77,16 83.1,16 83.1,12 66.5,12 "/>
<polygon points="26.7,29.9 40.6,29.9 40.6,25.9 31.2,25.9 31.2,22.7 38.5,22.7 38.5,18.8 31.2,18.8 31.2,16 40.6,16 40.6,12 
	26.7,12 "/>
<path d="M128.5,18c0-3.3-2.7-6-6-6h-11v17.9h4.5v-6h3.9l3.4,6h5.2l-3.7-6.4C127,22.6,128.5,20.5,128.5,18z M122.1,20H116v-4h6.1
	c1.1,0,1.9,0.9,1.9,2C124,19,123.2,19.9,122.1,20z"/>
</svg>
