<?xml version="1.0" encoding="iso-8859-1"?>
<!-- Generator: Adobe Illustrator 13.0.0, SVG Export Plug-In . SVG Version: 6.00 Build 14948)  -->
<!DOCTYPE svg PUBLIC "-//W3C//DTD SVG 1.1//EN" "http://www.w3.org/Graphics/SVG/1.1/DTD/svg11.dtd">
<svg version="1.1" id="WORT-_x2F_BILDMARKE_sRGB" xmlns="http://www.w3.org/2000/svg" xmlns:xlink="http://www.w3.org/1999/xlink"
	 x="0px" y="0px" width="283.464px" height="65.857px" viewBox="0 0 283.464 65.857"
	 style="enable-background:new 0 0 283.464 65.857;" xml:space="preserve">
<polygon id="Bildmarke_183_x2F_0_x2F_50" style="fill:#D4002D;" points="194.892,43.262 194.892,53.595 230.689,32.929 
	194.892,12.261 194.892,22.594 212.79,32.929 "/>
<polygon points="68.276,23.98 73.443,23.98 63.109,41.88 52.775,23.98 57.942,23.98 63.109,32.93 "/>
<path d="M148.112,23.534c-5.189,0-9.397,4.208-9.397,9.398c0,5.189,4.208,9.396,9.397,9.396s9.396-4.207,9.396-9.396
	C157.508,27.742,153.301,23.534,148.112,23.534z M148.112,37.877c-2.729,0-4.943-2.214-4.943-4.945c0-2.731,2.214-4.944,4.943-4.944
	c2.73,0,4.944,2.213,4.944,4.944S150.842,37.877,148.112,37.877z"/>
<path d="M108.801,37.877c-2.73,0-4.944-2.214-4.944-4.945c0-2.731,2.214-4.944,4.944-4.944c1.365,0,2.601,0.553,3.495,1.446
	l3.148-3.147c-1.7-1.7-4.049-2.752-6.643-2.752c-5.189,0-9.397,4.208-9.397,9.398c0,5.189,4.208,9.396,9.397,9.396
	c2.596,0,4.945-1.052,6.646-2.754l-3.148-3.147C111.404,37.322,110.167,37.877,108.801,37.877z"/>
<polygon points="119.047,28.008 125.088,28.008 125.088,41.88 129.563,41.88 129.563,28.008 135.604,28.008 135.604,23.98 
	119.047,23.98 "/>
<polygon points="79.269,41.88 93.141,41.88 93.141,37.851 83.743,37.851 83.743,34.719 91.083,34.719 91.083,30.781 83.743,30.781 
	83.743,28.008 93.141,28.008 93.141,23.98 79.269,23.98 "/>
<path d="M181.021,29.954c0-3.295-2.67-5.974-5.965-5.974h-11.039v17.9h4.475v-5.952h3.919l3.444,5.952h5.166l-3.702-6.422
	C179.491,34.566,181.021,32.448,181.021,29.954z M174.642,31.945h-6.149v-3.983h6.147c1.061,0.046,1.906,0.92,1.906,1.992
	C176.546,31.026,175.702,31.899,174.642,31.945z"/>
</svg>
