<?xml version="1.0" encoding="iso-8859-1"?>
<!-- Generator: Adobe Illustrator 13.0.0, SVG Export Plug-In . SVG Version: 6.00 Build 14948)  -->
<!DOCTYPE svg PUBLIC "-//W3C//DTD SVG 1.1//EN" "http://www.w3.org/Graphics/SVG/1.1/DTD/svg11.dtd">
<svg version="1.1" id="WORT-_x2F_BILDMARKE_sRGB" xmlns="http://www.w3.org/2000/svg" xmlns:xlink="http://www.w3.org/1999/xlink"
	 x="0px" y="0px" width="283.464px" height="65.857px" viewBox="0 0 283.464 65.857"
	 style="enable-background:new 0 0 283.464 65.857;" xml:space="preserve">
<polygon id="Bildmarke_183_x2F_0_x2F_50" style="fill:#B70032;" points="203.552,44.946 203.552,56.963 245.181,32.929 
	203.552,8.894 203.552,20.911 224.367,32.929 "/>
<polygon points="56.309,22.523 62.318,22.523 50.3,43.338 38.283,22.523 44.292,22.523 50.3,32.93 "/>
<path d="M149.152,22.004c-6.035,0-10.929,4.893-10.929,10.928s4.894,10.927,10.929,10.927c6.034,0,10.927-4.893,10.927-10.927
	C160.079,26.897,155.186,22.004,149.152,22.004z M149.152,38.682c-3.176,0-5.751-2.575-5.751-5.75c0-3.176,2.575-5.749,5.751-5.749
	c3.175,0,5.75,2.574,5.75,5.749S152.327,38.682,149.152,38.682z"/>
<path d="M103.436,38.682c-3.176,0-5.75-2.575-5.75-5.75c0-3.176,2.574-5.749,5.75-5.749c1.587,0,3.024,0.643,4.064,1.682
	l3.662-3.661c-1.978-1.977-4.709-3.2-7.726-3.2c-6.035,0-10.928,4.893-10.928,10.929c0,6.035,4.893,10.927,10.928,10.927
	c3.019,0,5.751-1.224,7.729-3.202l-3.661-3.662C106.462,38.038,105.024,38.682,103.436,38.682z"/>
<polygon points="115.352,27.205 122.377,27.205 122.377,43.338 127.58,43.338 127.58,27.205 134.605,27.205 134.605,22.523 
	115.352,22.523 "/>
<polygon points="69.093,43.338 85.225,43.338 85.225,38.654 74.296,38.654 74.296,35.011 82.832,35.011 82.832,30.431 
	74.296,30.431 74.296,27.205 85.225,27.205 85.225,22.523 69.093,22.523 "/>
<path d="M187.421,29.469c0-3.832-3.104-6.948-6.937-6.948h-12.838v20.816h5.204v-6.922h4.558l4.005,6.922h6.008l-4.306-7.468
	C185.642,34.833,187.421,32.369,187.421,29.469z M180.002,31.785h-7.15v-4.632h7.149c1.233,0.053,2.217,1.07,2.217,2.316
	C182.218,30.715,181.235,31.731,180.002,31.785z"/>
</svg>
