<svg xmlns="http://www.w3.org/2000/svg" width="256" height="256" viewBox="0 0 256 256">
  <g id="Ebene_2" data-name="Ebene 2">
    <g id="Areas">
      <g id="vAreaSimulation_Icon256">
        <g>
          <rect x="183.3" y="69.56" width="26.12" height="26.12" fill="#565c5e"/>
          <rect x="140.34" y="159.45" width="26.12" height="26.12" fill="#565c5e"/>
          <path d="M128,0A128,128,0,1,0,256,128,128,128,0,0,0,128,0ZM91.89,217.64,85.28,215l33.58-84.08-53.63.23.07,21.18H81.88v40.35H41.52V152.33H58.18l-.07-21.15-27.24.12,0-7.12,61.21-.26V102.79H75.43V62.44h40.36v40.35H99.17v21.09l22.53-.09,33.72-84.44L162,42l-32.7,81.9h10.11V131h-13Zm81.69-25H133.22V152.33h16.56L149.71,131h-3.15v-7.12H160.8V131h-4l.07,21.32h16.69ZM182.15,131H167.91v-7.12h14.24Zm21.36,0H189.27v-7.12h3.64v-21.1H176.18V62.44h40.35v40.35H200v21.1h3.48Zm7.11,0v-7.12h14.24V131Z" fill="#565c5e"/>
        </g>
      </g>
    </g>
  </g>
</svg>
