<svg xmlns="http://www.w3.org/2000/svg" width="32" height="32" viewBox="0 0 32 32">
  <g id="Ebene_2" data-name="Ebene 2">
    <g id="Areas">
      <g id="vAreaSimulation_Icon32">
        <g>
          <rect x="22.91" y="8.69" width="3.26" height="3.26" fill="#565c5e"/>
          <rect x="17.54" y="19.93" width="3.26" height="3.26" fill="#565c5e"/>
          <path d="M16,0A16,16,0,1,0,32,16,16,16,0,0,0,16,0ZM11.49,27.2l-.83-.33,4.2-10.51-6.71,0V19h2.07v5.05h-5V19H7.27V16.4H3.86v-.89l7.66,0V12.85H9.43v-5h5v5.05H12.4v2.64l2.81,0L19.43,4.92l.82.33L16.17,15.49h1.26v.89H15.81ZM21.7,24.09H16.65V19h2.07V16.38h-.39v-.89H20.1v.89h-.5V19H21.7Zm1.07-7.71H21v-.89h1.78Zm2.67,0H23.66v-.89h.45V12.85H22v-5h5.05v5.05H25v2.64h.44Zm.89,0v-.89h1.78v.89Z" fill="#565c5e"/>
        </g>
      </g>
    </g>
  </g>
</svg>
