<svg xmlns="http://www.w3.org/2000/svg" width="32" height="32" viewBox="0 0 32 32">
  <g id="Ebene_2" data-name="Ebene 2">
    <g id="Areas">
      <g id="vAreaDiagnostics_Icon32">
        <g>
          <path d="M16,0A16,16,0,1,0,32,16,16,16,0,0,0,16,0Zm2.39,21.79a2.37,2.37,0,0,1-.26.47v1.31h2.21v1.25H12.19V23.57h2.49V22.52A2.26,2.26,0,0,1,14,20.94a2.51,2.51,0,0,1,.07-.55H10.93V19.3h3.81a2.23,2.23,0,0,1,1.55-.62,2.26,2.26,0,0,1,1.92,1.06A3.71,3.71,0,0,0,20,16.63a3.78,3.78,0,0,0-2.64-3.54,2.26,2.26,0,0,1-1.78.88h-.23v2.38h-.55v1h-2v-1h-.55v-9h3.07V9.45h.23a2.27,2.27,0,0,1,2.21,1.79,5.71,5.71,0,0,1,4.2,5.4A5.64,5.64,0,0,1,18.39,21.79Z" fill="#565c5e"/>
          <circle cx="15.55" cy="11.71" r="1" fill="#565c5e"/>
          <circle cx="16.29" cy="20.94" r="1" fill="#565c5e"/>
        </g>
      </g>
    </g>
  </g>
</svg>
