<svg xmlns="http://www.w3.org/2000/svg" width="32" height="32" viewBox="0 0 32 32">
  <g id="Ebene_2" data-name="Ebene 2">
    <g id="Areas">
      <g id="vAreaAnalysis_Icon32">
        <g>
          <path d="M19.65,18.37h0c-1.65,0-2.43-2.66-2.76-4.38a3.54,3.54,0,0,0-.6,2A3.37,3.37,0,1,0,23,16a3.49,3.49,0,0,0-.59-2C22.07,15.68,21.29,18.32,19.65,18.37Z" fill="#565c5e"/>
          <path d="M19.61,16.51a8.46,8.46,0,0,0,1.06-3l.15-.81a3.22,3.22,0,0,0-1.21-.24,3.41,3.41,0,0,0-1.2.23l.14.78A8.5,8.5,0,0,0,19.61,16.51Z" fill="#565c5e"/>
          <path d="M16,0A16,16,0,1,0,32,16,16,16,0,0,0,16,0ZM26,23.9l-4.11-4.25a4.1,4.1,0,0,1-2.31.71A4.33,4.33,0,0,1,15.35,16a4.43,4.43,0,0,1,1.91-3.66c-.31-1-.68-1.93-1.28-1.93-.76,0-1.26,1.42-1.7,2.67-.54,1.53-1,3-2.24,3s-1.71-1.58-2.18-3.11c-.34-1.13-.77-2.53-1.38-2.53s-1.05,1-1.46,2.06C6.52,13.69,6,15,4.84,15h0c-1.93,0-2.38-2.32-2.39-2.42l.87-.16s.34,1.66,1.54,1.69h0c.57,0,1-1,1.37-2,.49-1.22,1-2.61,2.28-2.61s1.76,1.61,2.23,3.16c.34,1.1.76,2.48,1.33,2.48s1-1.26,1.4-2.38C14,11.16,14.59,9.5,16,9.5c1.14,0,1.68,1.15,2.08,2.4a4,4,0,0,1,1.55-.31,4.27,4.27,0,0,1,1.67.35c.46-1.29,1-2.44,2.12-2.44,1.53,0,2.15,2.58,2.22,2.87l-.87.2c-.2-.88-.77-2.18-1.35-2.18s-1,1-1.34,2A4.42,4.42,0,0,1,23.87,16a4.47,4.47,0,0,1-.7,2.4l4.14,4.28Z" fill="#565c5e"/>
        </g>
      </g>
    </g>
  </g>
</svg>
