<svg xmlns="http://www.w3.org/2000/svg" width="256" height="256" viewBox="0 0 256 256">
  <g id="Ebene_2" data-name="Ebene 2">
    <g id="Areas">
      <g id="vAreaDiagnostics_Icon256">
        <g>
          <path d="M128,0A128,128,0,1,0,256,128,128,128,0,0,0,128,0Zm19.11,174.31a17.93,17.93,0,0,1-2.11,3.78v10.45h17.72v10H97.48v-10H117.4v-8.41a17.89,17.89,0,0,1-4.59-17H87.45v-8.74h30.47a18,18,0,0,1,27.75,3.54A29.62,29.62,0,0,0,159.74,133c0-13-8.81-24.12-21.09-28.3a18.07,18.07,0,0,1-14.28,7,17.58,17.58,0,0,1-1.79-.09v19.06h-4.39v8.18H102.36v-8.18H98V58.55h24.6V75.63c.59,0,1.18-.09,1.79-.09a18.13,18.13,0,0,1,17.7,14.34c19.46,5.71,33.6,22.86,33.6,43.14C175.67,151.49,163.92,167.32,147.11,174.31Z" fill="#565c5e"/>
          <circle cx="124.37" cy="93.64" r="8.01" fill="#565c5e"/>
          <circle cx="130.35" cy="167.51" r="8.01" fill="#565c5e"/>
        </g>
      </g>
    </g>
  </g>
</svg>
