<svg xmlns="http://www.w3.org/2000/svg" width="32" height="32" viewBox="0 0 32 32">
  <g id="Ebene_2" data-name="Ebene 2">
    <g id="Areas">
      <path id="vAreaTest_Icon32" d="M16,0A16,16,0,1,0,32,16,16,16,0,0,0,16,0ZM5.2,9.13h15v1.78H5.2Zm-.06,5.81h15v1.78h-15Zm15.13,7.6h-15V20.76h15Zm2.9-13,1.07,1.3L26.5,8.21l.68.58-3,3.44L22.48,10.1Zm3.29,7.68-.63.63-1.21-1.2-1.23,1.2-.62-.63L24,16l-1.24-1.24.63-.63,1.24,1.24L26,14.11l.62.64L25.26,16Zm-2.14,6.65-1.74-2.13.69-.56,1.07,1.3,2.26-2.64.68.58Z" fill="#565c5e"/>
    </g>
  </g>
</svg>
